<svg xmlns="http://www.w3.org/2000/svg" viewBox="0 25 128 85" x="0px" y="0px"><g><path d="M123.984,71.909a8.619,8.619,0,0,1-.937,4.072,1.81,1.81,0,0,1,.438,1.873.842.842,0,0,1-1.025.582c-.066-.022-.127-.05-.194-.072-.022.116-.05.232-.066.354-.449,3.009.122,5.984-.028,8.992-.139,2.854-.471,6.732-1.917,9.23-1.418,2.449-5.9.632-8.05.449-6.117-.526-12.349-.255-18.483-.277-13.33-.039-26.637-.692-39.956-1.036-6.665-.166-13.319-.781-19.934-1.6-2.787-.349-5.463-1.064-8.211-1.562a52.281,52.281,0,0,0-9.59-.5.766.766,0,0,1-.4-.105,2.225,2.225,0,0,1-2.582-.244c-1.141-.138-2.282-.293-3.429-.343a.849.849,0,0,1-.787-1.036c-.027-2.122-.293-4.233-.277-6.355a.765.765,0,0,1,.028-.2,12.667,12.667,0,0,1-4.565-7.934.857.857,0,0,1,.454-.92.779.779,0,0,1,.9-.382c.9.227,1.823.438,2.748.593a9.552,9.552,0,0,1,.693-3.23c.005-.006.005-.011.011-.017a.767.767,0,0,1,.792-.7c.249,0,.5.006.748.011a1.828,1.828,0,0,0,.05-.36c0-.066,0-.127,0-.194l-.322-.066c-.354-.006-.709-.011-1.063-.011a.771.771,0,0,1-.782-.665.776.776,0,0,1-.188-.366,6.391,6.391,0,0,1-.116-1.59,8.762,8.762,0,0,0-1.668.1c-.737.122-1.014-1-.277-1.125a12.819,12.819,0,0,1,2.094-.127v-.006a.745.745,0,0,1,.133-.537.644.644,0,0,1,.632-.394c.62,0,1.241.017,1.856.05.005-.2.017-.4.017-.6a.582.582,0,0,1,1.163,0c0,.233-.011.46-.022.693a15.238,15.238,0,0,1,2.05.338,1.057,1.057,0,0,1,.21.083.769.769,0,0,1,.66.62c.459.039.908.111,1.368.139.748.05.754,1.213,0,1.163-.449-.027-.892-.094-1.341-.138a4.463,4.463,0,0,1-.177,1.374.8.8,0,0,1-.316.438.838.838,0,0,1-.692.482c-.521.055-1.042.072-1.563.083a4.59,4.59,0,0,1-.05.681c.7.039,1.4.094,2.1.172a.74.74,0,0,1,.2.044,1.271,1.271,0,0,1,.133.022,9.184,9.184,0,0,1,.387-1.673.835.835,0,0,1,.255-.382.78.78,0,0,1,.754-.471h3.075c-.338-.443-.676-.887-1.036-1.308-.416-.487.288-1.2.7-.709.554.654,1.058,1.347,1.585,2.017h1.59c.044-.2.088-.393.133-.593a25.142,25.142,0,0,0-2.283-1.507c-.582-.277-.077-1.136.5-.859a16.917,16.917,0,0,1,2.05,1.352c.05-.166.1-.327.144-.493-.36-.244-.732-.471-1.1-.692a.5.5,0,0,1,.5-.859c.349.2.693.421,1.031.643a1.088,1.088,0,0,1,.482-.178,9.215,9.215,0,0,1,3,.045,7,7,0,0,1,.582-1.812.7.7,0,0,1,.493-.41.725.725,0,0,1,.188-.055c.05-.654.05-1.308.106-1.956a1,1,0,0,1,.16-.477l.017-.033c0-.028-.006-.05-.006-.083a8.983,8.983,0,0,1,.2-2.432.919.919,0,0,1,.072-.178,26.193,26.193,0,0,1,.344-3.218.52.52,0,0,1,.022-.084.772.772,0,0,1,.776-.631c.3,0,.6-.017.908-.033-.182-2.859.039-5.718.1-8.582-.936-.017-1.873-.05-2.809-.128-.637-.055-.637-1.052,0-1,.953.084,1.906.117,2.859.139a.5.5,0,0,1,.936.017c1.308.011,2.621-.012,3.928-.017a.5.5,0,0,1,0,1c-1.307,0-2.609.022-3.917.011-.061,2.842-.277,5.684-.1,8.526a6.359,6.359,0,0,1,1.85.2.826.826,0,0,1,.349.2.673.673,0,0,1,.366.488c.133.886.155,1.778.277,2.665a1.123,1.123,0,0,1-.017.41.8.8,0,0,1,.083.4c-.027.714,0,1.435-.072,2.149a1.086,1.086,0,0,1-.055.266.965.965,0,0,1,.233.565,15.106,15.106,0,0,1,.1,1.729.642.642,0,0,1-.011.111l.466.066a.8.8,0,0,1,.559.172c.006-.105.017-.211.028-.316a.913.913,0,0,1,.066-.249.873.873,0,0,1,.527-.621c-.061-1.036-.006-2.072.027-3.108.006-.044.011-.077.017-.116a.709.709,0,0,1,.6-.792,16.917,16.917,0,0,1,2.178-.233c.127-3.2.991-6.388,4.521-6.5,2.709-.083,3.562,2.194,3.817,4.837a.785.785,0,0,1,.089-.061,17.776,17.776,0,0,1,.238-3.347.581.581,0,0,1,.027-.094.707.707,0,0,1,.588-.626c.172-.039.332-.055.5-.077a15.264,15.264,0,0,0,.05-3.38H48.4a.841.841,0,0,1-.537-.21.752.752,0,0,1-.471-.377c-1.335-.139-2.687-.045-4.022-.083a22.658,22.658,0,0,0-4.255.144c-.632.1-.9-.859-.266-.959a33.01,33.01,0,0,1,8.366-.127c-.028-.6,0-1.208,0-1.817a.772.772,0,0,1,.332-.649.835.835,0,0,1,.538-.249c.587-.055,1.174-.094,1.762-.122.016-.288.033-.57.061-.859-.15-.038-.3-.083-.455-.127a.848.848,0,0,1-.548-.5.722.722,0,0,1-.2-.576,22.662,22.662,0,0,1,.449-2.648.651.651,0,0,1,.227-.382.739.739,0,0,1,.61-.421,7.628,7.628,0,0,1,.232-2.067.8.8,0,0,1,.178-.327.844.844,0,0,1,.659-.426c.471-.045.936-.067,1.4-.072a41.4,41.4,0,0,0-.255-5.679c-.105-.632.859-.9.964-.266a43.939,43.939,0,0,1,.288,5.972,11.365,11.365,0,0,1,1.668.216.661.661,0,0,1,.182.061.732.732,0,0,1,.743.588,19.53,19.53,0,0,1,.332,1.966.753.753,0,0,1,.477.244.839.839,0,0,1,.371.454,18.335,18.335,0,0,1,.415,2.322.969.969,0,0,1,.012.249.882.882,0,0,1-.394.864,2,2,0,0,1-.277.156,10.2,10.2,0,0,0,.061,1.218c.659.006,1.319.017,1.978.017a1,1,0,0,1,.377.089.642.642,0,0,1,.559.592c.089.577.15,1.153.2,1.735a14.943,14.943,0,0,1,2.233-.15c.775-.011,1.54-.172,2.31-.166a.5.5,0,0,1,0,1c-.77,0-1.54.161-2.31.166a11.689,11.689,0,0,0-2.156.144c.05.881.067,1.768.067,2.654,0,.022-.006.039-.006.056a.668.668,0,0,1-.232.692c.005.975.027,1.95.033,2.925a1.04,1.04,0,0,1-.022.189,11.6,11.6,0,0,1,.249,1.424c.271.016.543.027.814.044a.864.864,0,0,1,1.114.271.8.8,0,0,1,.266.6.809.809,0,0,1-.139.449v.98a.789.789,0,0,1,.211.36.833.833,0,0,1-.576,1.02.094.094,0,0,0-.039.016c.033.333.05.676.055,1.014.477,0,.948.006,1.424.006a.767.767,0,0,1,.493.16.737.737,0,0,1,.41.516,14.017,14.017,0,0,1,.482,4.155c2.178.011,4.338.017,6.405.017a.79.79,0,0,1,.825.736c3.269-.725,6.527-1.512,9.846-2.016a.817.817,0,0,1,.121,0,.475.475,0,0,1,.543.227,4.238,4.238,0,0,1,.349,1.53.459.459,0,0,1-.016.088A.407.407,0,0,1,82.57,67a75.331,75.331,0,0,0-8.654,2.326.684.684,0,0,1,.282.433c.1.509.139,1.025.255,1.529.194-.011.383-.022.571-.028a.967.967,0,0,1,.266.039.762.762,0,0,1,.643.57c.077.283.166.566.249.843a8.572,8.572,0,0,1,1.407-2.56.7.7,0,0,1,.515-.277,12.094,12.094,0,0,1,4.421-.693c.095,0,.183-.011.278-.011a7.31,7.31,0,0,1,1.324-2.105c.443-.471,1.146.238.7.7a5.734,5.734,0,0,0-.925,1.351c.477-.038.953-.083,1.424-.138a8.118,8.118,0,0,1,1.324-1.917.5.5,0,0,1,.7.7,6.242,6.242,0,0,0-.82,1.058l1.39-.2c.006,0,.006-.005.011-.005.261-.449.527-.892.82-1.319.36-.532,1.225-.033.859.5-.227.338-.443.687-.654,1.036.128.089.255.172.383.261a20.555,20.555,0,0,1,1.5-2.039c.415-.493,1.119.216.709.7a18.765,18.765,0,0,0-1.419,1.944,6.514,6.514,0,0,1,.865.837,14.073,14.073,0,0,1,1.263,2.576,1.013,1.013,0,0,1,.083.222c3.834-.471,7.673-.826,11.557-.981,6.316-.249,12.793-.155,19.031-1.263A.85.85,0,0,1,123.984,71.909Zm-2.477,3.751a10.589,10.589,0,0,0,.792-2.781c-5.717.892-11.59.886-17.357,1.113a195.7,195.7,0,0,0-20.821,2.189,127.99,127.99,0,0,1-19.2,1.352c-5.961-.022-12.072.764-18.006.1a.865.865,0,0,1-.759-.692,1.139,1.139,0,0,1-.072-.277c-.072-.659-.094-1.324-.211-1.972q-3.423.007-6.853.049c-4.3.056-8.615.322-12.915.316-3.911,0-7.789-.748-11.695-.515a9.6,9.6,0,0,0-.194,1.74.715.715,0,0,1-.543.77.987.987,0,0,1-.205.066,17.969,17.969,0,0,1-7.657-.41,11.358,11.358,0,0,0,2.222,4.532,117.114,117.114,0,0,0,13.308,1.28c4.576.033,9.147.028,13.718.283,9.607.542,19.141.831,28.765.858,18.848.056,37.691-.044,56.539-.083a18.8,18.8,0,0,1,.233-5.3c.038-.166.083-.332.133-.5-.355-.144-.7-.288-1.053-.443a.829.829,0,0,1-.3-1.136.852.852,0,0,1,1.135-.3c.061.028.122.05.183.078A2.882,2.882,0,0,1,121.507,75.66Zm-1,10.687c0-.2-.005-.371-.011-.493-.016-.421-.038-.853-.066-1.28-19.231.039-38.456.128-57.686.078-9.618-.022-19.131-.443-28.732-.909-4.576-.221-9.147-.166-13.729-.238a96.779,96.779,0,0,1-11.2-1.141c.172.172.355.332.543.493a44.123,44.123,0,0,0,4.7,1.047,31.919,31.919,0,0,0,8.283,1.119c4.665-.033,9.335-.2,14-.144a110.2,110.2,0,0,1,13.84.953,86.667,86.667,0,0,0,13.989.382c9.58-.221,19.192.211,28.777.294C102.31,86.586,111.407,86.37,120.5,86.347Zm-2.443,10.084c1.884-.178,2.36-6.072,2.432-9.086-10.172.022-20.338.243-30.516.127-9.873-.111-19.729-.338-29.6-.15a133.253,133.253,0,0,1-14.26-.986,146.717,146.717,0,0,0-14.887-.426c-4.615.066-9.507.6-14.062-.327-1.828-.371-3.623-.848-5.446-1.225,4.421,2.665,10.355,3.7,15.059,5.308,0-.017.011-.028.011-.044a.519.519,0,0,1,.737-.577c5.3,2.782,11.745,2.71,17.59,3.02a90.508,90.508,0,0,0,9.258.144c2.493-.122,4.964-.593,7.457-.6a.446.446,0,0,1,.089.022.518.518,0,0,1,.6.61,4.091,4.091,0,0,1-1.833,2.443c8.853.316,17.706.6,26.56.72,6.072.078,12.144-.005,18.211.1a55.139,55.139,0,0,1,7.407.311A22.1,22.1,0,0,0,118.061,96.431ZM90.642,73.571a6.4,6.4,0,0,0-.986-2.038c-.128-.139-.255-.261-.388-.383-.2.349-.393.7-.587,1.053-.3.571-1.164.066-.859-.5.211-.4.432-.786.654-1.174-.111-.083-.222-.161-.338-.238-.416.759-.831,1.523-1.291,2.26-.338.543-1.2.044-.859-.5.322-.521.626-1.053.925-1.59-.459.066-.914.138-1.374.194a9.315,9.315,0,0,1-1.368,2.122c-.432.476-1.136-.211-.7-.687a6.937,6.937,0,0,0,.915-1.247c-.405.039-.815.144-1.225.144h-.011A16.665,16.665,0,0,1,82.21,72.8c-.355.532-1.219,0-.865-.543a9.386,9.386,0,0,0,.726-1.4c-.382.011-.764.033-1.141.072a11.211,11.211,0,0,0-.144,4.011c1.667-.2,3.33-.432,5-.687C87.407,74.015,89.024,73.782,90.642,73.571Zm-8.737-7.457a2.507,2.507,0,0,0-.078-.4c-3.146.493-6.249,1.235-9.357,1.922a6.184,6.184,0,0,1,.271,1.008C75.777,67.737,78.786,66.712,81.905,66.114ZM79.8,75.056a12.26,12.26,0,0,1,.088-3.972,8.519,8.519,0,0,0-1.191.338,8.723,8.723,0,0,0-1.474,3.9C78.082,75.245,78.941,75.15,79.8,75.056Zm-4.56.443a22.68,22.68,0,0,0-.72-2.554c-1.042.056-2.072.2-3.108.344-.017.82-.061,1.634-.078,2.454Q73.287,75.652,75.24,75.5Zm-2.327-4.05v-.387c0-.034-.1-.067-.111-.106-3.158-.016-7.064-.376-10.571-.072-.083.582-.166,1.169-.26,1.751.271.006.548.006.825.017a.843.843,0,0,1,.831.831,6,6,0,0,0,.344,2.4c.006.006.006.006.006.011.659-.016,1.329-.027,1.988-.022.172,0,.355-.005.527-.005.354-1.059.465-2.167.759-3.236a.8.8,0,0,1,.321-.443.862.862,0,0,1,.654-.272A43.4,43.4,0,0,0,72.913,71.449ZM71.3,70.1a.941.941,0,0,1-.144-.51c0-.022,0-.038,0-.061,0-.06-.011-.11-.011-.166a2.078,2.078,0,0,0-.372-.044.416.416,0,0,1,0-.831c.084,0,.161.011.239.017a4.884,4.884,0,0,0-.344-.881L59.228,67.6a5.883,5.883,0,0,0-.1,2.366c.648-.016,1.3-.044,1.939-.028a.84.84,0,0,1,.515.194.417.417,0,0,1,.172-.049A73.845,73.845,0,0,1,71.3,70.1Zm-.742,4.072c.011-.26.022-.521.028-.781-.621.078-1.241.139-1.862.166-.172.765-.3,1.535-.5,2.288.764-.011,1.523-.038,2.282-.066.012-.332.023-.659.034-.986a.433.433,0,0,1-.482.227.426.426,0,0,1-.288-.515v-.15A.423.423,0,0,1,70.553,74.175Zm-7.369-8.233a10.248,10.248,0,0,0-.027-1.357c-2.161.017-4.327.078-6.488.127a10.331,10.331,0,0,1-.083,1.219C58.724,65.931,60.952,65.937,63.184,65.942Zm-.626-2.183c.172,0,.338,0,.5-.005-.049-.327-.1-.654-.177-.981h-.349A8.328,8.328,0,0,1,62.558,63.759Zm-.327,12.189a6.277,6.277,0,0,1-.255-1.651c-3.49-.05-6.908.4-10.393.388H47.555c.067.454.1.909.139,1.363C52.475,76.491,57.389,76.114,62.231,75.948Zm-.5-12.177a5.928,5.928,0,0,0-.028-1h-.271c.044.333.05.671.094,1C61.594,63.776,61.661,63.776,61.727,63.771Zm-1-5.291v-.444c-.31-.016-.62-.033-.936-.038a.805.805,0,0,1-.338-.072,3.453,3.453,0,0,0,.05.343c0,.028-.006.044-.006.072A10.152,10.152,0,0,1,60.724,58.48ZM60.093,63.8l.6-.017a10.088,10.088,0,0,0-.1-1.008H60C60.048,63.117,60.071,63.46,60.093,63.8ZM58.924,94.619a5.814,5.814,0,0,0,2.388-2c-3,.066-5.973.632-8.992.643-3.43.011-6.848-.167-10.272-.388-4.8-.31-9.757-.515-14.183-2.554a15.879,15.879,0,0,0,.681,1.551c1.158.255,2.322.51,3.5.681a164.708,164.708,0,0,0,18.449,1.762Q54.7,94.473,58.924,94.619Zm1.457-33.5a7.95,7.95,0,0,0-.072-1.025,11.944,11.944,0,0,0-3.047-.045c-.067.388-.117.776-.155,1.164C58.2,61.15,59.289,61.122,60.381,61.117ZM60.2,71.6c-.227.006-.46.006-.687.011.033.349.078.7.116,1.042.167,0,.338-.006.5-.011A6.476,6.476,0,0,1,60.2,71.6Zm-1.623-7.762.687-.017a7.826,7.826,0,0,0-.106-1.025c-.221,0-.443.012-.664.017A5.338,5.338,0,0,1,58.575,63.837Zm.227,8.848c-.044-.355-.089-.709-.122-1.064a12.824,12.824,0,0,1-1.961-.122c-.022.432-.022.865-.011,1.3Q57.755,72.729,58.8,72.685Zm-.161-22.028c0-.355,0-.7-.011-1.053-.066,0-.127.017-.188.017a.416.416,0,0,1,0-.831c.055,0,.1-.012.16-.012,0-.144-.011-.288-.022-.432-2.8.022-5.6.133-8.4.178a1.1,1.1,0,0,1,.022.194.854.854,0,0,1-.039.232c-.078,1.28.122,2.554-.033,3.829.31,0,.626.016.942.022.659.011,1.318-.022,1.977-.034a4.784,4.784,0,0,0,.061-1.069.987.987,0,0,1,.937-.9C55.489,50.839,57.223,51.144,58.641,50.657Zm-.809,7.352c.266,0,.532-.006.793-.006-.028-.282-.045-.565-.061-.853-.244-.017-.493-.033-.737-.039A8.151,8.151,0,0,1,57.832,58.009Zm.826-1.679c-.028-.222-.067-.449-.111-.67a10.612,10.612,0,0,0-3.158-.161,4.345,4.345,0,0,0-.133.836A21.829,21.829,0,0,1,58.658,56.33Zm-.133-8.815c-.028-.282-.061-.565-.094-.847-3.192-.028-6.377-.144-9.557.088-.011.316-.011.637-.006.959C52.087,47.7,55.306,47.543,58.525,47.515Zm-.094,6.455-.017-1.563a16.063,16.063,0,0,1-3.657.083c0,.117-.022.233-.038.35h.016a.907.907,0,0,1,.416.166.867.867,0,0,1,.521.77v.033A13.186,13.186,0,0,1,58.431,53.97ZM58.4,67.6c-.664,0-1.235-.006-1.673-.006.028.754.089,1.5.15,2.255a9.673,9.673,0,0,0,1.39.122A8.009,8.009,0,0,1,58.4,67.6Zm-.648-3.745a4.414,4.414,0,0,0-.111-1.014c-.459.022-.914.05-1.368.088a1.376,1.376,0,0,1-.222.023c-1.152-.017-2.3.055-3.457.1,0,.3.006.6.006.892C54.314,63.937,56.032,63.9,57.749,63.854ZM57,58.014a7.333,7.333,0,0,0-.011-.925c-.144,0-.293.011-.443.017.028.3.028.615.072.914C56.746,58.02,56.874,58.014,57,58.014Zm-1.119.842c-.36,0-.72.006-1.08.006a.385.385,0,0,1-.394-.443c-.005-.023-.016-.045-.022-.072v-.111c-.022,0-.044.005-.066.005-1.978-.016-3.951.106-5.923.133a11.118,11.118,0,0,0,.056,1.28.381.381,0,0,1,.188-.061c2.338-.2,4.681-.044,7.025-.011l.067-.382A.82.82,0,0,1,55.882,58.856Zm0,13.984c-.017-.349-.017-.7,0-1.047-1.3-.006-2.638.077-3.973.1,0,.366-.005.748-.011,1.119C53.228,73,54.558,72.923,55.882,72.84Zm.061-30.522c-.05-.393-.094-.792-.177-1.18-1.7.006-3.391.023-5.092.028-.094.46-.194.925-.26,1.391,1.684.1,3.368.094,5.053.171A.8.8,0,0,1,55.943,42.318ZM55.771,65.8c.039-.321.061-.754.067-1.075-1.081.028-2.155.044-3.236.05.006.4.006.809.011,1.213C53.666,65.965,54.719,65.832,55.771,65.8Zm-.548-7.773c.188,0,.382-.006.576-.006-.028-.293-.028-.6-.072-.892-.127.006-.255.022-.382.028A5.119,5.119,0,0,0,55.223,58.031Zm.21,3.263c.023-.294.056-.587.1-.881-1.784-.028-3.568-.122-5.346-.072a.766.766,0,0,1-.017.371,4.831,4.831,0,0,0-.144,1.269,1.229,1.229,0,0,1-.022.133c.005,0,.005.006.005.006a.8.8,0,0,1,.433.692c.011.205.016.41.027.615a.707.707,0,0,1,.216.089l.022.011c.006-.05.017-.094.023-.139a.907.907,0,0,1-.011-.127,4.843,4.843,0,0,1,.1-1.053.745.745,0,0,1,.349-.471.785.785,0,0,1,.626-.31C53.007,61.388,54.22,61.305,55.433,61.294Zm-.781-16.333c.244,0,.488.006.731.006a10.946,10.946,0,0,1-.055-1.413l-.764-.033A13.911,13.911,0,0,1,54.652,44.961Zm.754,26.006a.673.673,0,0,1-.083-.254.827.827,0,0,1-.034-.078c-2.066.006-4.133-.089-6.2-.122v.465A51,51,0,0,0,55.406,70.967Zm-.7-1.994h.437c-.044-.576-.083-1.152-.094-1.729a.892.892,0,0,1-.138-.57l-.233.016C54.73,67.449,54.719,68.208,54.708,68.973ZM51.649,39.5l3.07-.016c-.045-.344-.095-.687-.161-1.025a10.889,10.889,0,0,0-2.815-.144A7.129,7.129,0,0,0,51.649,39.5Zm2.277,14.943c-.814-.023-1.623.038-2.448.027a19.509,19.509,0,0,0-2.6-.005,15.1,15.1,0,0,0-.139,2.238c1.618-.028,3.23-.105,4.848-.116a5.84,5.84,0,0,1,.3-1.878A.909.909,0,0,1,53.926,54.441Zm-.049,14.526c.011-.742.022-1.479-.028-2.216-.227.017-.454.033-.682.045a8.769,8.769,0,0,0-.033,2.155ZM52.968,44.95h.864a11.062,11.062,0,0,0-.088-1.418c0-.011.005-.017,0-.028-.255,0-.516-.017-.776-.022Zm-.554.006V43.471c-.272-.011-.538-.017-.809-.028a.93.93,0,0,1,.011.177v.045c-.028.437-.072.87-.1,1.307C51.816,44.967,52.115,44.956,52.414,44.956ZM51.2,68.9c.365.011.731.017,1.1.028-.017-.349-.039-.7-.044-1.048h-.017a.405.405,0,0,1-.382.333h-.682C51.189,68.441,51.2,68.668,51.2,68.9Zm.587-1.8c0-.255-.006-.51-.006-.765-.011,0-.016.006-.027,0-.743-.088-1.5-.061-2.239-.2l-.033.964Zm-.726,5.922c.006-.365.011-.814.011-1.124a19.769,19.769,0,0,1-1.983-.094v1.235Zm-.693-4.149c-.005-.222-.011-.444-.022-.665h-.67a3.689,3.689,0,0,0,.055.648Zm-2.177-.045.7.017a5.6,5.6,0,0,1-.044-.742.623.623,0,0,1-.166-.471.335.335,0,0,1-.039-.189c.039-1.257.1-2.515.105-3.773,0-.016.006-.033.006-.05a.512.512,0,0,1-.078-.044c-.426-.011-.853-.028-1.28,0,.006.654.023,1.712.1,2.554a.407.407,0,0,1-.609.383c-.322,0-.637.016-.953.022,0,.737.022,1.468.033,2.2a15.612,15.612,0,0,1,1.856.178A.849.849,0,0,1,48.192,68.834Zm-.764,4.217V71.039c-.128-.149,0-.338,0-.543a11.122,11.122,0,0,0-4.6.283,8.221,8.221,0,0,0-.127,2.277Q45.07,73.049,47.428,73.051Zm-1.94-9.8c-.077-.7-.132-1.407-.16-2.111-1.684-.017-3.363-.061-5.047-.083.038.7.094,1.357.133,1.917a.661.661,0,0,1,.4.288.892.892,0,0,1,.205.487,27.251,27.251,0,0,1,.044,3.092c1.07.028,2.139.028,3.208.022,0-.366,0-.737,0-1.108a1.378,1.378,0,0,1,.82-.936,2.263,2.263,0,0,1,.277-.056A13.777,13.777,0,0,1,45.488,63.25ZM45.3,60.308l-.033-1.546c-1.74,0-3.363.006-5.036.022-.017.482-.011.964.011,1.441C41.926,60.241,43.616,60.291,45.3,60.308Zm-.089-2.377v-.022c0-1.1.067-4.083-1.651-4.028-2.31.072-3.1,1.923-3.3,4.072C41.9,57.937,43.549,57.931,45.211,57.931ZM44.3,68.79v-.266c-1.474.006-2.948.006-4.416-.072a16.038,16.038,0,0,0,.161,1.623c.149.006.3.006.454.012a.814.814,0,0,1,.466.138.783.783,0,0,1,.2-.055L41.222,70a.839.839,0,0,1,.111-.2.826.826,0,0,1,.5-.482A10.245,10.245,0,0,1,44.3,68.79Zm-3.6,3.3v0a.772.772,0,0,1-.62-.338,63.3,63.3,0,0,0-7.607.061,2.068,2.068,0,0,1-.061.282h.6c.554,0,.554.554,0,.554H32.3a2.524,2.524,0,0,1-.022.466c2.249-.067,4.5-.006,6.748-.034.316-.005.626-.005.936-.005-.26-.288-.172-.981.266-.981h.482Zm-1.285-6.648c0-.554-.006-.588-.017-.82a15.268,15.268,0,0,0-2.565-.056c-.022.228-.044.388-.066.61.271.022.548.033.82.055.531.05.531.881,0,.831-.3-.027-.61-.039-.915-.061-.005.067-.016.133-.022.2a10.75,10.75,0,0,1,2.438.51c.033.011.066.028.1.039a1.064,1.064,0,0,1,.133-.006c.022,0,.05-.005.077-.005.006-.244.006-.194.011-.748h-.853v-.554Zm-.676-2.626c-.039-.721-.089-1.552-.111-2.427-.377.022-.759.039-1.136.083-.027.781-.055,1.562-.016,2.344Q38.115,62.793,38.746,62.818Zm-.371,7.219c-.028-.205-.05-.416-.072-.621-1.441-.1-2.876.006-4.311.033-.033.189-.055.383-.072.571C35.405,69.954,36.89,70,38.375,70.037Zm-.15-1.457c-.005-.133-.016-.261-.022-.394a11.115,11.115,0,0,0-3.773-.349c-.094.261-.177.515-.249.776C35.533,68.58,36.879,68.491,38.225,68.58Zm-4.476-2.338c.171-.023.343-.039.52-.05l0-.006c-.056-.205-.111-.4-.172-.6a24.76,24.76,0,0,0-5.972-.094,5.652,5.652,0,0,0-.294,1.064h2.427c.177,0,.3.172.36.4a.908.908,0,0,1,.371.482c.083.255.15.515.21.776h1.275a.556.556,0,0,1,.1.011,10.1,10.1,0,0,1,.383-1.169.258.258,0,0,0,.016-.039A.9.9,0,0,1,33.749,66.242Zm-1.214-2.483a8.067,8.067,0,0,0-.044-1.03,17.947,17.947,0,0,0-3.28-.1c-.017.376-.028.748-.055,1.124A26.638,26.638,0,0,1,32.535,63.759Zm-.26-2.72c.028-.41.033-.814.039-1.219a9.74,9.74,0,0,0-2.837-.038,7.069,7.069,0,0,0-.05,1.185A23.326,23.326,0,0,1,32.275,61.039Zm-.033,9.12c.005-.1.016-.189.027-.283H30.807a.866.866,0,0,1-.46-.127.775.775,0,0,1-.654-.588,8.842,8.842,0,0,0-.216-.947H27.4c-.055,1.1-.122,2.2-.16,3.307a11.53,11.53,0,0,1,.338,1.84c1.014-.022,2.022-.05,3.03-.078a8.081,8.081,0,0,1,.405-2.382.791.791,0,0,1,.471-.5.86.86,0,0,1,.465-.211C32.048,70.175,32.142,70.17,32.242,70.159Zm.011-11.918c-.022-.216-.039-.554-.056-.554h-.282c-.554,0-.554-1.108,0-1.108h.2a.709.709,0,0,1-.022-.155,9.546,9.546,0,0,0-2.183.006.556.556,0,0,0-.011.1c.149.011.3.023.454.023a.418.418,0,0,1,0,.836c-.188,0-.377,0-.565,0-.022.238-.05.5-.067.748A12.427,12.427,0,0,1,32.253,58.241ZM26.219,91.367a.929.929,0,0,1-.055-.161c-2.776-.936-5.9-1.723-8.915-2.72a7.139,7.139,0,0,0,.128,1.5.773.773,0,0,1,.105.216,2.875,2.875,0,0,0,.2.537,43.357,43.357,0,0,1,6.46.272C24.84,91.1,25.527,91.228,26.219,91.367Zm-.57-21.491c.038-.7.072-1.4.105-2.089a7.2,7.2,0,0,0-1.862-.061c-.2.671-.382,1.347-.52,2.034A16.543,16.543,0,0,1,25.649,69.876ZM25.571,71.7c-.017-.056-.039-.117-.055-.172a17.944,17.944,0,0,0-4.15-.006,11.577,11.577,0,0,0-.715,1.585c1.629.144,3.258.283,4.892.283C25.543,72.823,25.549,72.264,25.571,71.7Zm-5.8-.715H16.335a8.113,8.113,0,0,0-.3,1.856c.98.006,1.955.055,2.93.127A9.683,9.683,0,0,1,19.776,70.984Zm-3.5,18.3a7.769,7.769,0,0,1-.005-1.131c-.726-.254-1.441-.526-2.139-.819a4.256,4.256,0,0,1,.355,1.645c.388.066.776.144,1.158.238C15.853,89.245,16.064,89.262,16.274,89.284Zm-.587.975c-.094-.022-.194-.05-.288-.078-.327-.039-.659-.088-.986-.138a1.821,1.821,0,0,1-.244.77C14.684,91.156,15.249,90.713,15.687,90.259Zm-2.632-1.446.427.033a3.669,3.669,0,0,0-.061-.493c-.044-.211-.122-.742-.388-.8-.515-.111-.692.7-.57,1.158a1.847,1.847,0,0,1,.426.033A.377.377,0,0,1,13.055,88.813Zm.377,1.08c-.216-.033-.432-.066-.654-.094-.144-.011-.288-.022-.432-.022-.005.033-.022.088-.022.027a.519.519,0,0,0,.222.494.831.831,0,0,0,.1.049l.56.067a.248.248,0,0,0,.083-.067A.966.966,0,0,0,13.432,89.893Zm-.338-20.671a4.251,4.251,0,0,0,.067-1,18.89,18.89,0,0,0-3.574-.349,6.745,6.745,0,0,0,.028,1.3c.161.028.321.061.476.095C11.094,69.283,12.1,69.289,13.094,69.222Zm-.138,4.139c.005-.011.011-.017.016-.028-.908-.072-1.822-.111-2.742-.122a8.671,8.671,0,0,0-.454,2.471,12.327,12.327,0,0,0,2.82-.1,14.146,14.146,0,0,0,.205-1.724A.81.81,0,0,1,12.956,73.361ZM11.382,89.472a1.29,1.29,0,0,1,.205-.349,1.933,1.933,0,0,1,.931-2.515,21.342,21.342,0,0,1-2.283-1.269c.045,1.59.183,3.18.233,4.77.3.028.6.056.892.089A1.244,1.244,0,0,1,11.382,89.472Z"/><path d="M118.183,75.821c.46.537-.111,1.59-.593,1.817-.953.449-.775-.543-1.529-.454.116.587.255.93-.316,1.18-.26.111-1.163.188-1.385-.039-.521-.554.316-.842.454-1.108.211-.416-.144-.632-.171-1.136-.488.022-.876-.116-.726-.692.066-.222.9-.527,1.108-.56,1.08-.194.792.626,1.313,1.136C116.975,76.591,117.618,75.167,118.183,75.821Z"/><path d="M111.972,76.8a.416.416,0,0,1,0,.831h-.554a.416.416,0,0,1,0-.831Z"/><path d="M110.244,77.355a.42.42,0,0,1-.421.416,4.989,4.989,0,0,0-1.341.055.417.417,0,0,1-.222-.8,5.909,5.909,0,0,1,1.563-.083A.427.427,0,0,1,110.244,77.355Z"/><path d="M105.811,76.8a.416.416,0,0,1,0,.831h-.831a.416.416,0,0,1,0-.831Z"/><path d="M101.169,94.1c2.255.017,4.083.244,4.083.5s-1.834.454-4.089.438-4.083-.244-4.083-.5S98.914,94.076,101.169,94.1Z"/><path d="M103.385,77.078c.554,0,.554.554,0,.554h-1.662c-.554,0-.554-.554,0-.554Z"/><path d="M101.379,80.89a.416.416,0,0,1,0,.831h-.626a.416.416,0,0,1,0-.831Z"/><path d="M100.061,77.078c.554,0,.554,1.108,0,1.108H98.4V77.078Z"/><path d="M98.953,80.957a.416.416,0,0,1,0,.831h-.832a.416.416,0,0,1,0-.831Z"/><path d="M96.182,77.078c.554,0,.554,1.108,0,1.108H95.074c-.554,0-.554-1.108,0-1.108Z"/><path d="M96.182,80.957a.416.416,0,0,1,0,.831,9.391,9.391,0,0,1-1.423-.083.415.415,0,0,1-.294-.51.428.428,0,0,1,.51-.294A7.992,7.992,0,0,0,96.182,80.957Z"/><path d="M93.412,77.632c.554,0,.554.554,0,.554H91.75v-.554Z"/><path d="M92.792,81.023a.416.416,0,0,1,0,.831h-.831a.416.416,0,0,1,0-.831Z"/><path d="M86.143,93.993c3.668,0,6.649.211,6.649.471s-2.981.465-6.649.465-6.648-.21-6.648-.465S82.47,93.993,86.143,93.993Z"/><path d="M90.088,77.632c.554,0,.554,1.108,0,1.108H88.426c-.537,0-.537-1.108,0-1.108Z"/><path d="M89.877,81.167a.416.416,0,0,1,0,.831h-.554a.416.416,0,0,1,0-.831Z"/><path d="M87.733,81.167a.416.416,0,0,1,0,.831h-.9a.416.416,0,0,1,0-.831Z"/><path d="M86.143,77.909a.416.416,0,0,1,0,.831H85.1a.416.416,0,0,1,0-.831Z"/><path d="M83.024,78.048a.416.416,0,0,1,0,.831h-.831a.416.416,0,0,1,0-.831Z"/><path d="M79.905,78.12a.416.416,0,0,1,0,.831h-.2a.416.416,0,0,1,0-.831Z"/><path d="M77.833,78.12a.416.416,0,0,1,0,.831h-.7a.416.416,0,0,1,0-.831Z"/><path d="M74.071,93.517c1.147.188,1.839.409,1.823.531s-.743.144-1.878.128c-1.142,0-2.715.016-4.455.028a44.25,44.25,0,0,1-4.5-.145c-1.141-.133-1.84-.3-1.84-.426.006-.139.726-.2,1.873-.238s2.709-.106,4.466-.128A29.767,29.767,0,0,1,74.071,93.517Z"/><path d="M75.683,78.186c.554,0,.554,1.109,0,1.109H74.575c-.537,0-.537-1.109,0-1.109Z"/><path d="M72.5,78.325a.416.416,0,0,1,0,.831,3.453,3.453,0,0,0-.793.055c-.521.117-.742-.687-.216-.8A4.748,4.748,0,0,1,72.5,78.325Z"/><path d="M69.91,68.557a.416.416,0,0,1,0,.831h-.853a.416.416,0,0,1,0-.831Z"/><path d="M69.589,78.74c.554,0,.554.555,0,.555H68.481c-.554,0-.554-.555,0-.555Z"/><path d="M68.858,74.148c.088-.532.892-.3.8.221-.017.105-.033.216-.05.327a.419.419,0,0,1-.515.288.423.423,0,0,1-.288-.51C68.824,74.364,68.841,74.253,68.858,74.148Z"/><path d="M67.833,68.652c.531.049.537.886,0,.831-.416-.039-.831-.023-1.247-.023a.416.416,0,0,1,0-.831C67,68.629,67.417,68.613,67.833,68.652Z"/><path d="M66.475,78.53a.416.416,0,0,1,0,.831h-.831a.416.416,0,0,1,0-.831Z"/><path d="M64.049,78.53a.415.415,0,0,1,0,.831,6.543,6.543,0,0,0-1.136.055c-.527.095-.715-.7-.189-.8A7.208,7.208,0,0,1,64.049,78.53Z"/><path d="M61.212,78.6a.416.416,0,0,1,0,.831h-.9a.416.416,0,0,1,0-.831Z"/><path d="M58.165,78.6a.416.416,0,0,1,0,.831h-.554a.416.416,0,0,1,0-.831Z"/><path d="M57.505,48.718a.416.416,0,0,1,0,.831H57.3a.416.416,0,0,1,0-.831Z"/><path d="M56.259,48.718a.416.416,0,0,1,0,.831H55.91a.416.416,0,0,1,0-.831Z"/><path d="M54.974,78.674a.416.416,0,0,1,0,.831H54.7a.416.416,0,0,1,0-.831Z"/><path d="M54.314,48.734a.416.416,0,0,1,.216.8,1.733,1.733,0,0,1-.388.05.416.416,0,0,1,0-.831A.357.357,0,0,0,54.314,48.734Z"/><path d="M53.073,48.889a.416.416,0,0,1,0,.831H52.8a.416.416,0,0,1,0-.831Z"/><path d="M52.8,78.619a.42.42,0,0,1,.288.509.41.41,0,0,1-.51.288.84.84,0,0,0-.3-.055.416.416,0,0,1,0-.831A1.4,1.4,0,0,1,52.8,78.619Z"/><path d="M51.688,48.856a.416.416,0,0,1,0,.831h-.449a.416.416,0,0,1,0-.831Z"/><path d="M49.71,78.253a.416.416,0,0,1,0,.831h-.2a.416.416,0,0,1,0-.831Z"/><path d="M47.638,78.4a.416.416,0,0,1,0,.831h-.9a.416.416,0,0,1,0-.831Z"/><path d="M43.965,78.12a.416.416,0,0,1,0,.831h-.482a.416.416,0,0,1,0-.831Z"/><path d="M42.026,78.12a.416.416,0,0,1,0,.831H40.99a.416.416,0,0,1,0-.831Z"/><path d="M38.774,77.632a.416.416,0,0,1,0,.831h-.349a.416.416,0,0,1,0-.831Z"/><path d="M37.317,77.632a.416.416,0,0,1,0,.831h-.482a.416.416,0,0,1,0-.831Z"/><path d="M35.1,77.632a.416.416,0,0,1,0,.831h-.482a.416.416,0,0,1,0-.831Z"/><path d="M32.812,77.843a.416.416,0,0,1,0,.831h-.554a.416.416,0,0,1,0-.831Z"/><path d="M30.6,77.843a.416.416,0,0,1,0,.831,2.746,2.746,0,0,1-.731-.089.414.414,0,0,1,.221-.8A2.3,2.3,0,0,0,30.6,77.843Z"/><path d="M28.452,77.771a.416.416,0,0,1,0,.831h-.693a.416.416,0,0,1,0-.831Z"/><path d="M26.125,77.788a.414.414,0,0,1,.222.8,2.466,2.466,0,0,1-.665.089.416.416,0,0,1,0-.831A1.707,1.707,0,0,0,26.125,77.788Z"/><path d="M23.743,77.771a.416.416,0,0,1,0,.831h-.277a.416.416,0,0,1,0-.831Z"/><path d="M21.072,78.519a.416.416,0,0,1,.216-.8.717.717,0,0,1,.327.177C22,78.231,21.471,78.785,21.072,78.519Z"/><path d="M18.407,77.494a.416.416,0,0,1,0,.831h-.133a.416.416,0,0,1,0-.831Z"/><path d="M17.443,80.181a.5.5,0,0,1,0,1h-.421a.5.5,0,0,1,0-1Z"/><path d="M17.067,77.439a.417.417,0,0,1-.222.8c-.072-.022-.138-.05-.2-.072a.414.414,0,0,1,.216-.8C16.928,77.389,17,77.422,17.067,77.439Z"/><path d="M15.36,80.386a.5.5,0,0,1,0,1h-.9a.5.5,0,0,1,0-1Z"/><path d="M15.294,77.355a.416.416,0,1,1,0,.831A.416.416,0,0,1,15.294,77.355Z"/><path d="M12.308,80.2a.5.5,0,0,1-.261.964c-.277-.072-.554-.139-.831-.211a.5.5,0,0,1,.26-.958C11.753,80.059,12.031,80.131,12.308,80.2Z"/><path d="M9.936,79.854a.529.529,0,0,1,.4.61.547.547,0,0,1-.649.349,8.541,8.541,0,0,0-1.047-.05c-.554,0-.554-1,0-1A6.412,6.412,0,0,1,9.936,79.854Z"/></g></svg>