<?xml version="1.0" encoding="utf-8"?>
<!-- Generator: Adobe Illustrator 28.1.0, SVG Export Plug-In . SVG Version: 6.00 Build 0)  -->
<svg version="1.1" id="Capa_1" xmlns="http://www.w3.org/2000/svg" xmlns:xlink="http://www.w3.org/1999/xlink" x="0px" y="0px"
	 viewBox="0 0 800 800" style="enable-background:new 0 0 800 800;" xml:space="preserve">
<style type="text/css">
	.st0{fill:#D4CB02;}
</style>
<g>
	<path class="st0" d="M773.4,59H26.6C11.9,59,0,70.9,0,85.6v628.9C0,729.1,11.9,741,26.6,741h746.8c14.7,0,26.6-11.9,26.6-26.6V85.6
		C800,70.9,788.1,59,773.4,59z M13.9,634.3h204.5c3.8,0,7-3.1,7-7s-3.1-7-7-7H13.9v-71.2h102.5c3.8,0,7-3.1,7-7s-3.1-7-7-7H13.9
		V224.9h79.6c3.8,0,7-3.1,7-7c0-3.8-3.1-7-7-7H13.9v-42.6h772.2v71.8H640.5c-3.8,0-7,3.1-7,7c0,3.8,3.1,7,7,7h145.6v330.3h-168
		c-3.8,0-7,3.1-7,7c0,3.8,3.1,7,7,7h168v75.3H13.9V634.3z M26.6,72.9h746.8c7,0,12.7,5.7,12.7,12.7v24.7H278.6c-3.8,0-7,3.1-7,7
		s3.1,7,7,7h507.5v30.3H13.9V85.6C13.9,78.6,19.6,72.9,26.6,72.9z M773.4,727.1H26.6c-7,0-12.7-5.7-12.7-12.7v-26.9h772.2v26.9
		C786.1,721.4,780.4,727.1,773.4,727.1z"/>
	<path class="st0" d="M62.4,138.9c13.8,0,25-11.2,25-25s-11.2-25-25-25s-25,11.2-25,25C37.4,127.7,48.6,138.9,62.4,138.9z
		 M62.4,102.9c6.1,0,11.1,5,11.1,11.1s-5,11.1-11.1,11.1s-11.1-5-11.1-11.1C51.3,107.8,56.3,102.9,62.4,102.9z"/>
	<path class="st0" d="M132,138.9c13.8,0,25-11.2,25-25s-11.2-25-25-25s-25,11.2-25,25C107,127.7,118.2,138.9,132,138.9z M132,102.9
		c6.1,0,11.1,5,11.1,11.1s-5,11.1-11.1,11.1c-6.1,0-11.1-5-11.1-11.1S125.9,102.9,132,102.9z"/>
	<path class="st0" d="M201.6,138.9c13.8,0,25-11.2,25-25s-11.2-25-25-25c-13.8,0-25,11.2-25,25C176.6,127.7,187.8,138.9,201.6,138.9
		z M201.6,102.9c6.1,0,11.1,5,11.1,11.1s-5,11.1-11.1,11.1c-6.1,0-11.1-5-11.1-11.1C190.5,107.8,195.5,102.9,201.6,102.9z"/>
	<path class="st0" d="M513.1,361.3c-2.7-2.7-7.1-2.7-9.8,0l-61.5,61.5l0-149.7c0-16.1-13.1-29.2-29.2-29.2h-44.4
		c-16.1,0-29.2,13.1-29.2,29.2v149.7l-61.5-61.5c-1.3-1.3-3.1-2-4.9-2c-1.8,0-3.6,0.7-4.9,2l-46.6,46.6c-11.4,11.4-11.4,29.9,0,41.3
		l148.7,148.7c5.5,5.5,12.8,8.5,20.6,8.5c7.8,0,15.1-3,20.6-8.5l148.7-148.7c5.5-5.5,8.5-12.8,8.5-20.6c0-7.8-3-15.1-8.5-20.6
		L513.1,361.3z M549.9,439.3L401.2,588c-2.9,2.9-6.7,4.5-10.8,4.5c-4.1,0-7.9-1.6-10.8-4.5l-92.9-92.9h110.4c3.8,0,7-3.1,7-7
		s-3.1-7-7-7h-124c-0.1,0-0.2,0-0.3,0L231,439.3c-5.9-5.9-5.9-15.6,0-21.6l41.7-41.7l68.4,68.4c2,2,5,2.6,7.6,1.5
		c2.6-1.1,4.3-3.6,4.3-6.4V273.1c0-8.4,6.8-15.2,15.3-15.2h44.4c8.4,0,15.3,6.8,15.3,15.2l0,166.5c0,2.8,1.7,5.4,4.3,6.4
		c2.6,1.1,5.6,0.5,7.6-1.5l68.4-68.4l41.7,41.7c2.9,2.9,4.5,6.7,4.5,10.8C554.4,432.6,552.8,436.4,549.9,439.3z"/>
</g>
</svg>
